<mxfile host="app.diagrams.net" modified="2021-07-01T11:15:07.776Z" agent="5.0 (Windows NT 10.0; Win64; x64) AppleWebKit/537.36 (KHTML, like Gecko) Chrome/91.0.4472.114 Safari/537.36" etag="CDipwKHrjyph99gb9mnb" version="14.8.2" type="github">
  <diagram id="rPLFyuedksj8Cc4ZVnyh" name="Page-1">
    <mxGraphModel dx="782" dy="478" grid="1" gridSize="10" guides="1" tooltips="1" connect="1" arrows="1" fold="1" page="1" pageScale="1" pageWidth="827" pageHeight="1169" math="0" shadow="0">
      <root>
        <mxCell id="0" />
        <mxCell id="1" parent="0" />
        <mxCell id="Vm2AwkOwRieZ71tuIAwf-2" value="Con" style="rounded=0;whiteSpace=wrap;html=1;strokeWidth=2;fillColor=none;" vertex="1" parent="1">
          <mxGeometry x="140" y="740" width="120" height="60" as="geometry" />
        </mxCell>
        <mxCell id="Vm2AwkOwRieZ71tuIAwf-3" value="Dự án" style="rounded=0;whiteSpace=wrap;html=1;" vertex="1" parent="1">
          <mxGeometry x="550" y="740" width="120" height="60" as="geometry" />
        </mxCell>
        <mxCell id="Vm2AwkOwRieZ71tuIAwf-4" value="Phong Ban" style="rounded=0;whiteSpace=wrap;html=1;" vertex="1" parent="1">
          <mxGeometry x="550" y="500" width="120" height="60" as="geometry" />
        </mxCell>
        <mxCell id="Vm2AwkOwRieZ71tuIAwf-5" value="Nhân Viên" style="rounded=0;whiteSpace=wrap;html=1;" vertex="1" parent="1">
          <mxGeometry x="140" y="500" width="120" height="60" as="geometry" />
        </mxCell>
        <mxCell id="Vm2AwkOwRieZ71tuIAwf-7" value="&lt;u&gt;Tên Da&lt;span style=&quot;color: rgba(0 , 0 , 0 , 0) ; font-family: monospace ; font-size: 0px&quot;&gt;%3CmxGraphModel%3E%3Croot%3E%3CmxCell%20id%3D%220%22%2F%3E%3CmxCell%20id%3D%221%22%20parent%3D%220%22%2F%3E%3CmxCell%20id%3D%222%22%20value%3D%22%22%20style%3D%22rounded%3D0%3BwhiteSpace%3Dwrap%3Bhtml%3D1%3B%22%20vertex%3D%221%22%20parent%3D%221%22%3E%3CmxGeometry%20x%3D%22360%22%20y%3D%22520%22%20width%3D%22120%22%20height%3D%2260%22%20as%3D%22geometry%22%2F%3E%3C%2FmxCell%3E%3C%2Froot%3E%3C%2FmxGraphModel%3E&lt;/span&gt;&lt;/u&gt;" style="ellipse;whiteSpace=wrap;html=1;strokeWidth=1;fillColor=none;" vertex="1" parent="1">
          <mxGeometry x="530" y="820" width="50" height="50" as="geometry" />
        </mxCell>
        <mxCell id="Vm2AwkOwRieZ71tuIAwf-8" value="&lt;u&gt;Mã Da&lt;span style=&quot;color: rgba(0 , 0 , 0 , 0) ; font-family: monospace ; font-size: 0px&quot;&gt;%3CmxGraphModel%3E%3Croot%3E%3CmxCell%20id%3D%220%22%2F%3E%3CmxCell%20id%3D%221%22%20parent%3D%220%22%2F%3E%3CmxCell%20id%3D%222%22%20value%3D%22%22%20style%3D%22rounded%3D0%3BwhiteSpace%3Dwrap%3Bhtml%3D1%3B%22%20vertex%3D%221%22%20parent%3D%221%22%3E%3CmxGeometry%20x%3D%22360%22%20y%3D%22520%22%20width%3D%22120%22%20height%3D%2260%22%20as%3D%22geometry%22%2F%3E%3C%2FmxCell%3E%3C%2Froot%3E%3C%2FmxGraphModel%3E&lt;/span&gt;&lt;/u&gt;" style="ellipse;whiteSpace=wrap;html=1;strokeWidth=1;fillColor=none;" vertex="1" parent="1">
          <mxGeometry x="630" y="820" width="50" height="50" as="geometry" />
        </mxCell>
        <mxCell id="Vm2AwkOwRieZ71tuIAwf-9" value="Địa điểm" style="ellipse;whiteSpace=wrap;html=1;strokeWidth=1;fillColor=none;" vertex="1" parent="1">
          <mxGeometry x="690" y="745" width="50" height="50" as="geometry" />
        </mxCell>
        <mxCell id="Vm2AwkOwRieZ71tuIAwf-10" value="Giới tính" style="ellipse;whiteSpace=wrap;html=1;strokeWidth=1;fillColor=none;" vertex="1" parent="1">
          <mxGeometry x="210" y="820" width="50" height="50" as="geometry" />
        </mxCell>
        <mxCell id="Vm2AwkOwRieZ71tuIAwf-11" value="Ngày sinh" style="ellipse;whiteSpace=wrap;html=1;strokeWidth=1;fillColor=none;" vertex="1" parent="1">
          <mxGeometry x="120" y="820" width="50" height="50" as="geometry" />
        </mxCell>
        <mxCell id="Vm2AwkOwRieZ71tuIAwf-12" value="Tên" style="ellipse;whiteSpace=wrap;html=1;strokeWidth=1;fillColor=none;" vertex="1" parent="1">
          <mxGeometry x="50" y="770" width="50" height="50" as="geometry" />
        </mxCell>
        <mxCell id="Vm2AwkOwRieZ71tuIAwf-13" value="Địa điểm" style="ellipse;whiteSpace=wrap;html=1;strokeWidth=2;fillColor=none;" vertex="1" parent="1">
          <mxGeometry x="700" y="430" width="60" height="50" as="geometry" />
        </mxCell>
        <mxCell id="Vm2AwkOwRieZ71tuIAwf-14" value="TenPB" style="ellipse;whiteSpace=wrap;html=1;strokeWidth=1;fillColor=none;" vertex="1" parent="1">
          <mxGeometry x="620" y="430" width="50" height="50" as="geometry" />
        </mxCell>
        <mxCell id="Vm2AwkOwRieZ71tuIAwf-15" value="MaPB" style="ellipse;whiteSpace=wrap;html=1;strokeWidth=1;fillColor=none;" vertex="1" parent="1">
          <mxGeometry x="540" y="430" width="50" height="50" as="geometry" />
        </mxCell>
        <mxCell id="Vm2AwkOwRieZ71tuIAwf-16" value="Ngày sinh" style="ellipse;whiteSpace=wrap;html=1;strokeWidth=1;fillColor=none;" vertex="1" parent="1">
          <mxGeometry x="150" y="430" width="50" height="50" as="geometry" />
        </mxCell>
        <mxCell id="Vm2AwkOwRieZ71tuIAwf-17" value="Họ Tên" style="ellipse;whiteSpace=wrap;html=1;strokeWidth=1;fillColor=none;" vertex="1" parent="1">
          <mxGeometry x="80" y="440" width="50" height="50" as="geometry" />
        </mxCell>
        <mxCell id="Vm2AwkOwRieZ71tuIAwf-18" value="&lt;u&gt;MãNV&lt;/u&gt;" style="ellipse;whiteSpace=wrap;html=1;strokeWidth=1;fillColor=none;" vertex="1" parent="1">
          <mxGeometry x="50" y="560" width="50" height="50" as="geometry" />
        </mxCell>
        <mxCell id="Vm2AwkOwRieZ71tuIAwf-19" value="Giới tính" style="ellipse;whiteSpace=wrap;html=1;strokeWidth=1;fillColor=none;" vertex="1" parent="1">
          <mxGeometry x="60" y="500" width="50" height="50" as="geometry" />
        </mxCell>
        <mxCell id="Vm2AwkOwRieZ71tuIAwf-20" value="Họ Đệm" style="ellipse;whiteSpace=wrap;html=1;strokeWidth=1;fillColor=none;" vertex="1" parent="1">
          <mxGeometry x="20" y="430" width="50" height="50" as="geometry" />
        </mxCell>
        <mxCell id="Vm2AwkOwRieZ71tuIAwf-21" value="Tên" style="ellipse;whiteSpace=wrap;html=1;strokeWidth=1;fillColor=none;" vertex="1" parent="1">
          <mxGeometry x="70" y="380" width="50" height="50" as="geometry" />
        </mxCell>
        <mxCell id="Vm2AwkOwRieZ71tuIAwf-22" value="Địa chỉ" style="ellipse;whiteSpace=wrap;html=1;strokeWidth=1;fillColor=none;" vertex="1" parent="1">
          <mxGeometry x="220" y="420" width="50" height="50" as="geometry" />
        </mxCell>
        <mxCell id="Vm2AwkOwRieZ71tuIAwf-23" value="Lương" style="ellipse;whiteSpace=wrap;html=1;strokeWidth=1;fillColor=none;" vertex="1" parent="1">
          <mxGeometry x="100" y="590" width="50" height="50" as="geometry" />
        </mxCell>
        <mxCell id="Vm2AwkOwRieZ71tuIAwf-24" value="Có" style="rhombus;whiteSpace=wrap;html=1;strokeWidth=1;fillColor=none;" vertex="1" parent="1">
          <mxGeometry x="160" y="620" width="60" height="80" as="geometry" />
        </mxCell>
        <mxCell id="Vm2AwkOwRieZ71tuIAwf-25" value="Quản Lí" style="rhombus;whiteSpace=wrap;html=1;strokeWidth=1;fillColor=none;" vertex="1" parent="1">
          <mxGeometry x="360" y="450" width="80" height="60" as="geometry" />
        </mxCell>
        <mxCell id="Vm2AwkOwRieZ71tuIAwf-26" value="Làm viêc cho" style="rhombus;whiteSpace=wrap;html=1;strokeWidth=1;fillColor=none;" vertex="1" parent="1">
          <mxGeometry x="360" y="555" width="80" height="55" as="geometry" />
        </mxCell>
        <mxCell id="Vm2AwkOwRieZ71tuIAwf-28" style="edgeStyle=orthogonalEdgeStyle;rounded=0;orthogonalLoop=1;jettySize=auto;html=1;exitX=0.5;exitY=1;exitDx=0;exitDy=0;" edge="1" parent="1" source="Vm2AwkOwRieZ71tuIAwf-26" target="Vm2AwkOwRieZ71tuIAwf-26">
          <mxGeometry relative="1" as="geometry" />
        </mxCell>
        <mxCell id="Vm2AwkOwRieZ71tuIAwf-29" value="Làm việc trên" style="rhombus;whiteSpace=wrap;html=1;strokeWidth=1;fillColor=none;" vertex="1" parent="1">
          <mxGeometry x="360" y="660" width="80" height="60" as="geometry" />
        </mxCell>
        <mxCell id="Vm2AwkOwRieZ71tuIAwf-30" value="Kiểm soát" style="rhombus;whiteSpace=wrap;html=1;strokeWidth=1;fillColor=none;" vertex="1" parent="1">
          <mxGeometry x="570" y="620" width="80" height="60" as="geometry" />
        </mxCell>
        <mxCell id="Vm2AwkOwRieZ71tuIAwf-31" value="Ngày nhận chức" style="ellipse;whiteSpace=wrap;html=1;strokeWidth=1;fillColor=none;" vertex="1" parent="1">
          <mxGeometry x="414" y="390" width="50" height="50" as="geometry" />
        </mxCell>
        <mxCell id="Vm2AwkOwRieZ71tuIAwf-33" value="Số giờ" style="ellipse;whiteSpace=wrap;html=1;strokeWidth=1;fillColor=none;" vertex="1" parent="1">
          <mxGeometry x="440" y="610" width="50" height="50" as="geometry" />
        </mxCell>
        <mxCell id="Vm2AwkOwRieZ71tuIAwf-35" value="" style="endArrow=none;html=1;entryX=0.25;entryY=0;entryDx=0;entryDy=0;exitX=0.5;exitY=1;exitDx=0;exitDy=0;" edge="1" parent="1" source="Vm2AwkOwRieZ71tuIAwf-15" target="Vm2AwkOwRieZ71tuIAwf-4">
          <mxGeometry width="50" height="50" relative="1" as="geometry">
            <mxPoint x="390" y="610" as="sourcePoint" />
            <mxPoint x="440" y="560" as="targetPoint" />
          </mxGeometry>
        </mxCell>
        <mxCell id="Vm2AwkOwRieZ71tuIAwf-36" value="" style="endArrow=none;html=1;entryX=0.5;entryY=1;entryDx=0;entryDy=0;exitX=0.561;exitY=-0.011;exitDx=0;exitDy=0;exitPerimeter=0;" edge="1" parent="1" source="Vm2AwkOwRieZ71tuIAwf-4" target="Vm2AwkOwRieZ71tuIAwf-14">
          <mxGeometry width="50" height="50" relative="1" as="geometry">
            <mxPoint x="590" y="531.25" as="sourcePoint" />
            <mxPoint x="620" y="490" as="targetPoint" />
          </mxGeometry>
        </mxCell>
        <mxCell id="Vm2AwkOwRieZ71tuIAwf-37" value="" style="endArrow=none;html=1;entryX=0;entryY=1;entryDx=0;entryDy=0;exitX=1;exitY=0;exitDx=0;exitDy=0;" edge="1" parent="1" source="Vm2AwkOwRieZ71tuIAwf-4" target="Vm2AwkOwRieZ71tuIAwf-13">
          <mxGeometry width="50" height="50" relative="1" as="geometry">
            <mxPoint x="410" y="630" as="sourcePoint" />
            <mxPoint x="440" y="588.75" as="targetPoint" />
          </mxGeometry>
        </mxCell>
        <mxCell id="Vm2AwkOwRieZ71tuIAwf-38" value="" style="endArrow=none;html=1;entryX=0;entryY=1;entryDx=0;entryDy=0;exitX=1;exitY=0;exitDx=0;exitDy=0;" edge="1" parent="1" source="Vm2AwkOwRieZ71tuIAwf-29" target="Vm2AwkOwRieZ71tuIAwf-33">
          <mxGeometry width="50" height="50" relative="1" as="geometry">
            <mxPoint x="415" y="666" as="sourcePoint" />
            <mxPoint x="450" y="598.75" as="targetPoint" />
          </mxGeometry>
        </mxCell>
        <mxCell id="Vm2AwkOwRieZ71tuIAwf-39" value="" style="endArrow=none;html=1;entryX=0.5;entryY=1;entryDx=0;entryDy=0;exitX=1;exitY=0;exitDx=0;exitDy=0;" edge="1" parent="1" source="Vm2AwkOwRieZ71tuIAwf-25" target="Vm2AwkOwRieZ71tuIAwf-31">
          <mxGeometry width="50" height="50" relative="1" as="geometry">
            <mxPoint x="430" y="650" as="sourcePoint" />
            <mxPoint x="460" y="608.75" as="targetPoint" />
          </mxGeometry>
        </mxCell>
        <mxCell id="Vm2AwkOwRieZ71tuIAwf-40" value="" style="endArrow=none;html=1;entryX=0;entryY=0.5;entryDx=0;entryDy=0;exitX=1;exitY=0.5;exitDx=0;exitDy=0;" edge="1" parent="1" source="Vm2AwkOwRieZ71tuIAwf-3" target="Vm2AwkOwRieZ71tuIAwf-9">
          <mxGeometry width="50" height="50" relative="1" as="geometry">
            <mxPoint x="440" y="660" as="sourcePoint" />
            <mxPoint x="470" y="618.75" as="targetPoint" />
          </mxGeometry>
        </mxCell>
        <mxCell id="Vm2AwkOwRieZ71tuIAwf-41" value="" style="endArrow=none;html=1;entryX=0.25;entryY=1;entryDx=0;entryDy=0;exitX=0.5;exitY=0;exitDx=0;exitDy=0;" edge="1" parent="1" source="Vm2AwkOwRieZ71tuIAwf-7" target="Vm2AwkOwRieZ71tuIAwf-3">
          <mxGeometry width="50" height="50" relative="1" as="geometry">
            <mxPoint x="450" y="670" as="sourcePoint" />
            <mxPoint x="480" y="628.75" as="targetPoint" />
          </mxGeometry>
        </mxCell>
        <mxCell id="Vm2AwkOwRieZ71tuIAwf-42" value="" style="endArrow=none;html=1;entryX=0.75;entryY=1;entryDx=0;entryDy=0;exitX=0.5;exitY=0;exitDx=0;exitDy=0;" edge="1" parent="1" source="Vm2AwkOwRieZ71tuIAwf-8" target="Vm2AwkOwRieZ71tuIAwf-3">
          <mxGeometry width="50" height="50" relative="1" as="geometry">
            <mxPoint x="460" y="680" as="sourcePoint" />
            <mxPoint x="490" y="638.75" as="targetPoint" />
          </mxGeometry>
        </mxCell>
        <mxCell id="Vm2AwkOwRieZ71tuIAwf-43" value="" style="endArrow=none;html=1;entryX=0.75;entryY=1;entryDx=0;entryDy=0;exitX=0.5;exitY=0;exitDx=0;exitDy=0;" edge="1" parent="1" source="Vm2AwkOwRieZ71tuIAwf-10" target="Vm2AwkOwRieZ71tuIAwf-2">
          <mxGeometry width="50" height="50" relative="1" as="geometry">
            <mxPoint x="470" y="690" as="sourcePoint" />
            <mxPoint x="500" y="648.75" as="targetPoint" />
          </mxGeometry>
        </mxCell>
        <mxCell id="Vm2AwkOwRieZ71tuIAwf-44" value="" style="endArrow=none;html=1;entryX=0.25;entryY=1;entryDx=0;entryDy=0;exitX=0.5;exitY=0;exitDx=0;exitDy=0;" edge="1" parent="1" source="Vm2AwkOwRieZ71tuIAwf-11" target="Vm2AwkOwRieZ71tuIAwf-2">
          <mxGeometry width="50" height="50" relative="1" as="geometry">
            <mxPoint x="480" y="700" as="sourcePoint" />
            <mxPoint x="510" y="658.75" as="targetPoint" />
          </mxGeometry>
        </mxCell>
        <mxCell id="Vm2AwkOwRieZ71tuIAwf-45" value="" style="endArrow=none;html=1;entryX=0;entryY=0.5;entryDx=0;entryDy=0;exitX=1;exitY=0.5;exitDx=0;exitDy=0;" edge="1" parent="1" source="Vm2AwkOwRieZ71tuIAwf-12" target="Vm2AwkOwRieZ71tuIAwf-2">
          <mxGeometry width="50" height="50" relative="1" as="geometry">
            <mxPoint x="490" y="710" as="sourcePoint" />
            <mxPoint x="520" y="668.75" as="targetPoint" />
          </mxGeometry>
        </mxCell>
        <mxCell id="Vm2AwkOwRieZ71tuIAwf-46" value="" style="endArrow=none;html=1;entryX=0.5;entryY=1;entryDx=0;entryDy=0;exitX=1;exitY=0;exitDx=0;exitDy=0;" edge="1" parent="1" source="Vm2AwkOwRieZ71tuIAwf-23" target="Vm2AwkOwRieZ71tuIAwf-5">
          <mxGeometry width="50" height="50" relative="1" as="geometry">
            <mxPoint x="140" y="600" as="sourcePoint" />
            <mxPoint x="530" y="678.75" as="targetPoint" />
          </mxGeometry>
        </mxCell>
        <mxCell id="Vm2AwkOwRieZ71tuIAwf-47" value="" style="endArrow=none;html=1;entryX=0;entryY=1;entryDx=0;entryDy=0;exitX=1;exitY=0.5;exitDx=0;exitDy=0;" edge="1" parent="1" source="Vm2AwkOwRieZ71tuIAwf-18" target="Vm2AwkOwRieZ71tuIAwf-5">
          <mxGeometry width="50" height="50" relative="1" as="geometry">
            <mxPoint x="510" y="730" as="sourcePoint" />
            <mxPoint x="540" y="688.75" as="targetPoint" />
          </mxGeometry>
        </mxCell>
        <mxCell id="Vm2AwkOwRieZ71tuIAwf-48" value="" style="endArrow=none;html=1;entryX=0;entryY=0.5;entryDx=0;entryDy=0;exitX=1;exitY=0.5;exitDx=0;exitDy=0;" edge="1" parent="1" source="Vm2AwkOwRieZ71tuIAwf-19" target="Vm2AwkOwRieZ71tuIAwf-5">
          <mxGeometry width="50" height="50" relative="1" as="geometry">
            <mxPoint x="520" y="740" as="sourcePoint" />
            <mxPoint x="550" y="698.75" as="targetPoint" />
          </mxGeometry>
        </mxCell>
        <mxCell id="Vm2AwkOwRieZ71tuIAwf-49" value="" style="endArrow=none;html=1;entryX=0;entryY=0;entryDx=0;entryDy=0;exitX=1;exitY=1;exitDx=0;exitDy=0;" edge="1" parent="1" source="Vm2AwkOwRieZ71tuIAwf-17" target="Vm2AwkOwRieZ71tuIAwf-5">
          <mxGeometry width="50" height="50" relative="1" as="geometry">
            <mxPoint x="530" y="750" as="sourcePoint" />
            <mxPoint x="560" y="708.75" as="targetPoint" />
          </mxGeometry>
        </mxCell>
        <mxCell id="Vm2AwkOwRieZ71tuIAwf-50" value="" style="endArrow=none;html=1;entryX=0.25;entryY=0;entryDx=0;entryDy=0;exitX=0.5;exitY=1;exitDx=0;exitDy=0;" edge="1" parent="1" source="Vm2AwkOwRieZ71tuIAwf-16" target="Vm2AwkOwRieZ71tuIAwf-5">
          <mxGeometry width="50" height="50" relative="1" as="geometry">
            <mxPoint x="540" y="760" as="sourcePoint" />
            <mxPoint x="570" y="718.75" as="targetPoint" />
          </mxGeometry>
        </mxCell>
        <mxCell id="Vm2AwkOwRieZ71tuIAwf-51" value="" style="endArrow=none;html=1;entryX=0.75;entryY=0;entryDx=0;entryDy=0;exitX=0.5;exitY=1;exitDx=0;exitDy=0;" edge="1" parent="1" source="Vm2AwkOwRieZ71tuIAwf-22" target="Vm2AwkOwRieZ71tuIAwf-5">
          <mxGeometry width="50" height="50" relative="1" as="geometry">
            <mxPoint x="550" y="770" as="sourcePoint" />
            <mxPoint x="580" y="728.75" as="targetPoint" />
          </mxGeometry>
        </mxCell>
        <mxCell id="Vm2AwkOwRieZ71tuIAwf-52" value="" style="endArrow=none;html=1;entryX=0.5;entryY=0;entryDx=0;entryDy=0;exitX=0.5;exitY=1;exitDx=0;exitDy=0;" edge="1" parent="1" source="Vm2AwkOwRieZ71tuIAwf-21" target="Vm2AwkOwRieZ71tuIAwf-17">
          <mxGeometry width="50" height="50" relative="1" as="geometry">
            <mxPoint x="560" y="780" as="sourcePoint" />
            <mxPoint x="590" y="738.75" as="targetPoint" />
          </mxGeometry>
        </mxCell>
        <mxCell id="Vm2AwkOwRieZ71tuIAwf-53" value="" style="endArrow=none;html=1;entryX=0;entryY=0.5;entryDx=0;entryDy=0;exitX=0.973;exitY=0.653;exitDx=0;exitDy=0;exitPerimeter=0;" edge="1" parent="1" source="Vm2AwkOwRieZ71tuIAwf-20" target="Vm2AwkOwRieZ71tuIAwf-17">
          <mxGeometry width="50" height="50" relative="1" as="geometry">
            <mxPoint x="570" y="790" as="sourcePoint" />
            <mxPoint x="600" y="748.75" as="targetPoint" />
          </mxGeometry>
        </mxCell>
        <mxCell id="Vm2AwkOwRieZ71tuIAwf-54" value="" style="endArrow=none;html=1;entryX=1;entryY=0.5;entryDx=0;entryDy=0;edgeStyle=orthogonalEdgeStyle;" edge="1" parent="1" source="Vm2AwkOwRieZ71tuIAwf-25" target="Vm2AwkOwRieZ71tuIAwf-5">
          <mxGeometry width="50" height="50" relative="1" as="geometry">
            <mxPoint x="580" y="800" as="sourcePoint" />
            <mxPoint x="610" y="758.75" as="targetPoint" />
          </mxGeometry>
        </mxCell>
        <mxCell id="Vm2AwkOwRieZ71tuIAwf-55" value="" style="endArrow=none;html=1;entryX=0;entryY=0.5;entryDx=0;entryDy=0;edgeStyle=orthogonalEdgeStyle;exitX=1;exitY=0.5;exitDx=0;exitDy=0;" edge="1" parent="1" source="Vm2AwkOwRieZ71tuIAwf-25" target="Vm2AwkOwRieZ71tuIAwf-4">
          <mxGeometry width="50" height="50" relative="1" as="geometry">
            <mxPoint x="590" y="810" as="sourcePoint" />
            <mxPoint x="620" y="768.75" as="targetPoint" />
          </mxGeometry>
        </mxCell>
        <mxCell id="Vm2AwkOwRieZ71tuIAwf-56" value="" style="endArrow=none;html=1;exitX=1;exitY=0.5;exitDx=0;exitDy=0;edgeStyle=orthogonalEdgeStyle;" edge="1" parent="1" source="Vm2AwkOwRieZ71tuIAwf-26" target="Vm2AwkOwRieZ71tuIAwf-4">
          <mxGeometry width="50" height="50" relative="1" as="geometry">
            <mxPoint x="600" y="820" as="sourcePoint" />
            <mxPoint x="630" y="778.75" as="targetPoint" />
          </mxGeometry>
        </mxCell>
        <mxCell id="Vm2AwkOwRieZ71tuIAwf-57" value="" style="endArrow=none;html=1;edgeStyle=orthogonalEdgeStyle;" edge="1" parent="1" source="Vm2AwkOwRieZ71tuIAwf-5" target="Vm2AwkOwRieZ71tuIAwf-26">
          <mxGeometry width="50" height="50" relative="1" as="geometry">
            <mxPoint x="450" y="592.5" as="sourcePoint" />
            <mxPoint x="560" y="540" as="targetPoint" />
          </mxGeometry>
        </mxCell>
        <mxCell id="Vm2AwkOwRieZ71tuIAwf-58" value="" style="endArrow=none;html=1;exitX=0.5;exitY=0;exitDx=0;exitDy=0;entryX=0.5;entryY=1;entryDx=0;entryDy=0;" edge="1" parent="1" source="Vm2AwkOwRieZ71tuIAwf-2" target="Vm2AwkOwRieZ71tuIAwf-24">
          <mxGeometry width="50" height="50" relative="1" as="geometry">
            <mxPoint x="390" y="710" as="sourcePoint" />
            <mxPoint x="440" y="660" as="targetPoint" />
          </mxGeometry>
        </mxCell>
        <mxCell id="Vm2AwkOwRieZ71tuIAwf-61" value="" style="endArrow=none;html=1;exitX=0.5;exitY=0;exitDx=0;exitDy=0;entryX=0.5;entryY=1;entryDx=0;entryDy=0;" edge="1" parent="1" source="Vm2AwkOwRieZ71tuIAwf-24" target="Vm2AwkOwRieZ71tuIAwf-5">
          <mxGeometry width="50" height="50" relative="1" as="geometry">
            <mxPoint x="390" y="710" as="sourcePoint" />
            <mxPoint x="440" y="660" as="targetPoint" />
          </mxGeometry>
        </mxCell>
        <mxCell id="Vm2AwkOwRieZ71tuIAwf-63" value="" style="endArrow=none;html=1;exitX=0.75;exitY=1;exitDx=0;exitDy=0;entryX=0;entryY=0;entryDx=0;entryDy=0;startArrow=none;" edge="1" parent="1" source="Vm2AwkOwRieZ71tuIAwf-5" target="Vm2AwkOwRieZ71tuIAwf-29">
          <mxGeometry width="50" height="50" relative="1" as="geometry">
            <mxPoint x="390" y="710" as="sourcePoint" />
            <mxPoint x="440" y="660" as="targetPoint" />
          </mxGeometry>
        </mxCell>
        <mxCell id="Vm2AwkOwRieZ71tuIAwf-64" value="" style="endArrow=none;html=1;exitX=1;exitY=1;exitDx=0;exitDy=0;" edge="1" parent="1" source="Vm2AwkOwRieZ71tuIAwf-29">
          <mxGeometry width="50" height="50" relative="1" as="geometry">
            <mxPoint x="470" y="612.5" as="sourcePoint" />
            <mxPoint x="550" y="770" as="targetPoint" />
          </mxGeometry>
        </mxCell>
        <mxCell id="Vm2AwkOwRieZ71tuIAwf-65" value="" style="endArrow=none;html=1;exitX=0.5;exitY=0;exitDx=0;exitDy=0;entryX=0.5;entryY=1;entryDx=0;entryDy=0;" edge="1" parent="1" source="Vm2AwkOwRieZ71tuIAwf-30" target="Vm2AwkOwRieZ71tuIAwf-4">
          <mxGeometry width="50" height="50" relative="1" as="geometry">
            <mxPoint x="480" y="622.5" as="sourcePoint" />
            <mxPoint x="590" y="570" as="targetPoint" />
          </mxGeometry>
        </mxCell>
        <mxCell id="Vm2AwkOwRieZ71tuIAwf-66" value="" style="endArrow=none;html=1;exitX=0.5;exitY=0;exitDx=0;exitDy=0;" edge="1" parent="1" source="Vm2AwkOwRieZ71tuIAwf-3">
          <mxGeometry width="50" height="50" relative="1" as="geometry">
            <mxPoint x="490" y="632.5" as="sourcePoint" />
            <mxPoint x="610" y="680" as="targetPoint" />
          </mxGeometry>
        </mxCell>
        <mxCell id="Vm2AwkOwRieZ71tuIAwf-68" value="1" style="text;html=1;strokeColor=none;fillColor=none;align=center;verticalAlign=middle;whiteSpace=wrap;rounded=0;" vertex="1" parent="1">
          <mxGeometry x="260" y="510" width="40" height="20" as="geometry" />
        </mxCell>
        <mxCell id="Vm2AwkOwRieZ71tuIAwf-69" value="1" style="text;html=1;strokeColor=none;fillColor=none;align=center;verticalAlign=middle;whiteSpace=wrap;rounded=0;" vertex="1" parent="1">
          <mxGeometry x="510" y="510" width="40" height="20" as="geometry" />
        </mxCell>
        <mxCell id="Vm2AwkOwRieZ71tuIAwf-70" value="1" style="text;html=1;strokeColor=none;fillColor=none;align=center;verticalAlign=middle;whiteSpace=wrap;rounded=0;" vertex="1" parent="1">
          <mxGeometry x="510" y="530" width="40" height="20" as="geometry" />
        </mxCell>
        <mxCell id="Vm2AwkOwRieZ71tuIAwf-71" value="n" style="text;html=1;strokeColor=none;fillColor=none;align=center;verticalAlign=middle;whiteSpace=wrap;rounded=0;" vertex="1" parent="1">
          <mxGeometry x="260" y="535" width="40" height="20" as="geometry" />
        </mxCell>
        <mxCell id="Vm2AwkOwRieZ71tuIAwf-72" value="1" style="text;html=1;strokeColor=none;fillColor=none;align=center;verticalAlign=middle;whiteSpace=wrap;rounded=0;" vertex="1" parent="1">
          <mxGeometry x="190" y="565" width="40" height="20" as="geometry" />
        </mxCell>
        <mxCell id="Vm2AwkOwRieZ71tuIAwf-73" value="" style="endArrow=none;html=1;exitX=0.5;exitY=1;exitDx=0;exitDy=0;entryX=0;entryY=0;entryDx=0;entryDy=0;" edge="1" parent="1" source="Vm2AwkOwRieZ71tuIAwf-5" target="Vm2AwkOwRieZ71tuIAwf-72">
          <mxGeometry width="50" height="50" relative="1" as="geometry">
            <mxPoint x="200" y="560" as="sourcePoint" />
            <mxPoint x="380" y="675" as="targetPoint" />
          </mxGeometry>
        </mxCell>
        <mxCell id="Vm2AwkOwRieZ71tuIAwf-74" value="n" style="text;html=1;strokeColor=none;fillColor=none;align=center;verticalAlign=middle;whiteSpace=wrap;rounded=0;" vertex="1" parent="1">
          <mxGeometry x="190" y="710" width="40" height="20" as="geometry" />
        </mxCell>
        <mxCell id="Vm2AwkOwRieZ71tuIAwf-75" value="n" style="text;html=1;strokeColor=none;fillColor=none;align=center;verticalAlign=middle;whiteSpace=wrap;rounded=0;" vertex="1" parent="1">
          <mxGeometry x="250" y="565" width="40" height="20" as="geometry" />
        </mxCell>
        <mxCell id="Vm2AwkOwRieZ71tuIAwf-76" value="n" style="text;html=1;strokeColor=none;fillColor=none;align=center;verticalAlign=middle;whiteSpace=wrap;rounded=0;" vertex="1" parent="1">
          <mxGeometry x="510" y="730" width="40" height="20" as="geometry" />
        </mxCell>
        <mxCell id="Vm2AwkOwRieZ71tuIAwf-77" value="1" style="text;html=1;strokeColor=none;fillColor=none;align=center;verticalAlign=middle;whiteSpace=wrap;rounded=0;" vertex="1" parent="1">
          <mxGeometry x="610" y="565" width="40" height="20" as="geometry" />
        </mxCell>
        <mxCell id="Vm2AwkOwRieZ71tuIAwf-78" value="n" style="text;html=1;strokeColor=none;fillColor=none;align=center;verticalAlign=middle;whiteSpace=wrap;rounded=0;" vertex="1" parent="1">
          <mxGeometry x="610" y="720" width="40" height="20" as="geometry" />
        </mxCell>
      </root>
    </mxGraphModel>
  </diagram>
</mxfile>
